<?xml version="1.0" encoding="utf-8"?>
<!-- Generator: Adobe Illustrator 24.0.2, SVG Export Plug-In . SVG Version: 6.00 Build 0)  -->
<svg version="1.1" id="Layer_1" xmlns="http://www.w3.org/2000/svg" xmlns:xlink="http://www.w3.org/1999/xlink" x="0px" y="0px"
	 viewBox="0 0 24 24" style="enable-background:new 0 0 24 24;" xml:space="preserve">
<style type="text/css">
	.st0{fill:#10579A;}
</style>
<path class="st0" d="M19.8,14c0.3,0.4,0.8,0.8,1.4,0.8c1,0,1.8-0.8,1.8-1.8s-0.8-1.8-1.8-1.8c-0.6,0-1.1,0.3-1.4,0.8H19
	c0-1.6-0.5-3-1.4-4.2l1.3-1.3c0.6,0.1,1.1-0.1,1.6-0.5c0.7-0.7,0.7-1.8,0-2.5c-0.7-0.7-1.8-0.7-2.5,0c-0.4,0.4-0.6,1-0.5,1.6
	l-1.3,1.3c-0.9-0.7-2-1.2-3.2-1.3V3.7c0.4-0.3,0.8-0.8,0.8-1.4c0-1-0.8-1.8-1.8-1.8s-1.8,0.8-1.8,1.8c0,0.6,0.3,1.1,0.8,1.4v1.4
	c-0.9,0.1-1.7,0.4-2.5,0.9L7.4,4.3c0.2-0.5,0.1-1.1-0.2-1.6C6.6,2,5.5,1.8,4.8,2.3C4,2.9,3.8,4,4.3,4.7c0.3,0.5,0.9,0.8,1.4,0.8
	l1.2,1.7C6.5,7.6,6.2,8.1,5.9,8.6C5.2,8.4,4.5,8.5,4,9c-0.7,0.7-0.7,1.8,0,2.5c0.3,0.3,0.6,0.4,1,0.5l0,0c0,0.5,0.1,1.1,0.2,1.6
	l-1.3,0.3c-0.4-0.3-1-0.5-1.6-0.3c-0.9,0.2-1.5,1.2-1.2,2.1c0.2,0.9,1.2,1.5,2.2,1.2c0.6-0.2,1-0.6,1.2-1.1l1.5-0.4
	c0.4,0.8,1,1.5,1.8,2.1l-1.1,2c-0.6,0.1-1.1,0.4-1.3,0.9c-0.5,0.9-0.1,1.9,0.7,2.4c0.8,0.5,1.9,0.1,2.4-0.7c0.3-0.5,0.3-1.1,0-1.6
	l1.1-2c0.8,0.3,1.7,0.5,2.6,0.5c0.1,0,0.1,0,0.2,0c-0.1,0.3-0.2,0.6-0.2,0.9c0.1,1,0.9,1.7,1.9,1.6s1.7-0.9,1.6-1.9
	c0-0.5-0.3-0.9-0.6-1.2c0.5-0.2,0.9-0.5,1.3-0.8l2.3,2.3c-0.1,0.6,0.1,1.1,0.5,1.6c0.7,0.7,1.8,0.7,2.5,0s0.7-1.8,0-2.5
	c-0.4-0.4-1-0.6-1.6-0.5l-2.3-2.3c0.5-0.6,0.9-1.4,1.1-2.2H19.8 M10.5,12C9.7,12,9,11.3,9,10.5S9.7,9,10.5,9S12,9.7,12,10.5
	S11.3,12,10.5,12 M14,15c-0.6,0-1-0.4-1-1s0.4-1,1-1s1,0.4,1,1S14.6,15,14,15z"/>
</svg>
